<svg xmlns="http://www.w3.org/2000/svg" viewBox="0 0 106.01 117.84"><defs><style>.cls-1{fill:#fff;}.cls-2{fill:#56acde;}.cls-3,.cls-5{fill:#074f88;}.cls-4{fill:none;stroke:#074f88;stroke-miterlimit:10;}.cls-5{font-size:56.16px;font-family:FranklinGothic-Medium, Franklin Gothic Medium;font-weight:500;}</style></defs><title>Recurso 1</title><g id="Capa_2" data-name="Capa 2"><g id="Capa_2-2" data-name="Capa 2"><path class="cls-1" d="M53,1.8h50.62V80.27S89.21,116,53,116Z"/><path class="cls-2" d="M53,.6H2.38V79.07S16.8,114.84,53,114.84Z"/><polygon class="cls-3" points="49.4 24.59 49.4 88.63 57.19 88.63 57.19 77.67 62.38 70.75 72.36 88.63 80.84 88.63 66.71 66.13 82.29 47.96 77.96 43.92 57.19 67.58 57.19 24.59 49.4 24.59"/><path class="cls-1" d="M53,117.84c-34,0-52.07-35-52.82-36.47L0,81V0H106V80.94l-.15.35C105.69,81.66,89.1,117.84,53,117.84ZM3.61,80.11c2,3.7,19.39,34.13,49.4,34.13,31.92,0,47.68-30.54,49.4-34.09V3.61H3.61Z"/><polygon class="cls-4" points="72.36 13.13 57.19 39.16 87.54 39.16 72.36 13.13"/><polygon class="cls-4" points="57.3 22.28 72.15 48.51 87.43 22.28 57.3 22.28"/><text class="cls-5" transform="translate(19.69 61.89) scale(0.98 1)">B</text></g></g></svg>